<svg data-v-1084b650="" xmlns="http://www.w3.org/2000/svg" viewBox="0 0 300 300"><!----> <!----> <rect data-v-1084b650="" fill="white" x="0" y="0" width="300px" height="300px" class="logo-background-square"></rect> <!----> <g data-v-1084b650="" id="6f412943-acfa-2422-dd26-68a0ada50070" fill="black" transform="matrix(2.8,0,0,2.8,36.72600093483926,125.89199914932252)"><path d="M10.04 8.25L10.04 8.25L10.04 8.25Q11.02 8.25 11.02 8.70L11.02 8.70L11.02 8.70Q11.02 8.99 10.69 9.74L10.69 9.74L10.69 9.74Q10.36 10.49 10.14 10.81L10.14 10.81L10.14 10.81Q9.93 11.13 9.71 11.13L9.71 11.13L9.71 11.13Q9.50 11.13 9.21 10.95L9.21 10.95L9.21 10.95Q8.91 10.78 8.61 10.57L8.61 10.57L8.61 10.57Q8.31 10.36 7.83 10.17L7.83 10.17L7.83 10.17Q7.36 9.98 6.90 9.95L6.90 9.95L6.90 9.95Q6.22 12.40 6.14 12.66L6.14 12.66L6.14 12.66Q6.06 12.92 5.91 13.19L5.91 13.19L5.91 13.19Q5.75 13.45 5.53 13.62L5.53 13.62L5.53 13.62Q5.31 13.79 5.08 13.90L5.08 13.90L5.08 13.90Q4.85 14.01 4.53 14.07L4.53 14.07L4.53 14.07Q2.97 14.31 1.52 13.95L1.52 13.95L1.52 13.95Q0.70 13.75 0.22 13.46L0.22 13.46L0.22 13.46Q-0.27 13.17-0.27 12.90L-0.27 12.90L-0.27 12.90Q-0.25 12.74-0.12 12.65L-0.12 12.65L-0.12 12.65Q0.01 12.56 0.18 12.56L0.18 12.56L0.18 12.56Q0.81 12.56 1.10 12.36L1.10 12.36L1.10 12.36Q1.40 12.15 1.67 11.61L1.67 11.61L1.67 11.61Q1.93 11.07 2.17 10.40L2.17 10.40L2.17 10.40Q2.41 9.73 2.60 9.17L2.60 9.17L2.60 9.17Q2.80 8.61 3.06 8.03L3.06 8.03L3.06 8.03Q3.63 6.77 4.51 6.35L4.51 6.35L4.51 6.35Q5.39 5.93 7.18 5.93L7.18 5.93L7.18 5.93Q8.25 5.93 8.25 6.28L8.25 6.28L8.25 6.28Q8.25 6.42 8.12 6.67L8.12 6.67L8.12 6.67Q7.61 7.64 7.18 9.03L7.18 9.03L7.18 9.03Q7.76 8.72 8.53 8.49L8.53 8.49L8.53 8.49Q9.31 8.25 10.04 8.25ZM12.12 6.83L12.12 6.83L12.12 6.83Q11.13 5.96 9.70 5.42L9.70 5.42L9.70 5.42Q8.28 4.89 6.83 4.89L6.83 4.89L6.83 4.89Q5.96 4.89 4.74 5.12L4.74 5.12L4.74 5.12Q3.51 5.35 2.93 5.61L2.93 5.61L2.93 5.61Q2.34 5.87 2.15 5.87L2.15 5.87L2.15 5.87Q1.93 5.87 1.93 5.66L1.93 5.66L1.93 5.66Q1.93 5.44 2.30 5.13L2.30 5.13L2.30 5.13Q2.68 4.83 3.40 4.50L3.40 4.50L3.40 4.50Q4.12 4.17 5.03 3.88L5.03 3.88L5.03 3.88Q7.11 3.24 9.58 3.24L9.58 3.24L9.58 3.24Q11.20 3.24 12.28 3.38L12.28 3.38L12.28 3.38Q14.30 3.62 14.30 4.14L14.30 4.14L14.30 4.14Q14.28 4.42 14.03 5.07L14.03 5.07L14.03 5.07Q13.77 5.72 13.43 6.31L13.43 6.31L13.43 6.31Q13.08 6.90 12.85 6.97L12.85 6.97L12.85 6.97Q12.71 7.01 12.53 7.01L12.53 7.01L12.53 7.01Q12.35 7.01 12.12 6.83ZM19.89 4.38L19.89 4.38L19.89 4.38Q19.89 5.11 19.08 5.65L19.08 5.65L19.08 5.65Q18.27 6.19 17.37 6.19L17.37 6.19L17.37 6.19Q16.47 6.19 15.97 5.83L15.97 5.83L15.97 5.83Q15.47 5.46 15.47 4.94L15.47 4.94L15.47 4.94Q15.47 4.41 15.85 3.98L15.85 3.98L15.85 3.98Q16.24 3.55 16.85 3.30L16.85 3.30L16.85 3.30Q17.46 3.06 18.18 3.06L18.18 3.06L18.18 3.06Q18.89 3.06 19.39 3.44L19.39 3.44L19.39 3.44Q19.89 3.81 19.89 4.38ZM17.96 12.86L17.96 12.86L17.96 12.86Q18.43 12.86 19.23 12.64L19.23 12.64L19.23 12.64Q20.02 12.41 20.38 12.24L20.38 12.24L20.38 12.24Q20.75 12.07 20.89 12.07L20.89 12.07L20.89 12.07Q21.18 12.07 21.18 12.35L21.18 12.35L21.18 12.35Q21.18 12.48 20.97 12.65L20.97 12.65L20.97 12.65Q20.27 13.17 18.46 13.73L18.46 13.73L18.46 13.73Q16.65 14.29 15.22 14.29L15.22 14.29L15.22 14.29Q14.34 14.29 13.75 14.01L13.75 14.01L13.75 14.01Q13.15 13.73 13.15 13.15L13.15 13.15L13.15 13.15Q13.15 12.80 13.75 11.44L13.75 11.44L13.75 11.44Q14.87 8.87 14.87 7.56L14.87 7.56L14.86 7.30L14.86 7.30Q14.86 6.96 15.52 6.96L15.52 6.96L18.90 6.88L18.90 6.88Q19.08 6.88 19.17 6.99L19.17 6.99L19.17 6.99Q19.26 7.10 19.26 7.23L19.26 7.23L19.26 7.23Q19.26 7.70 18.83 8.78L18.83 8.78L18.83 8.78Q18.40 9.86 17.96 10.91L17.96 10.91L17.96 10.91Q17.53 11.96 17.53 12.41L17.53 12.41L17.53 12.41Q17.53 12.86 17.96 12.86ZM22.48 6.98L22.48 6.98L25.72 6.90L25.72 6.90Q25.89 6.90 25.98 7.01L25.98 7.01L25.98 7.01Q26.07 7.12 26.07 7.21L26.07 7.21L26.07 7.21Q26.07 7.29 26.02 7.50L26.02 7.50L26.02 7.50Q25.98 7.70 25.90 7.99L25.90 7.99L25.90 7.99Q25.83 8.29 25.81 8.37L25.81 8.37L25.81 8.37Q26.34 7.73 27.14 7.25L27.14 7.25L27.14 7.25Q27.94 6.76 28.55 6.76L28.55 6.76L28.55 6.76Q29.84 6.76 29.84 7.32L29.84 7.32L29.84 7.32Q29.84 7.88 29.49 8.65L29.49 8.65L29.49 8.65Q29.14 9.43 28.83 9.67L28.83 9.67L28.83 9.67Q28.68 9.78 28.47 9.78L28.47 9.78L28.47 9.78Q28.25 9.78 28.07 9.65L28.07 9.65L28.07 9.65Q27.24 9.03 26.26 9.03L26.26 9.03L26.26 9.03Q25.89 9.03 25.61 9.08L25.61 9.08L25.61 9.08Q25.34 10.00 24.76 11.77L24.76 11.77L24.76 11.77Q24.18 13.55 24.12 13.75L24.12 13.75L24.12 13.75Q24.01 14.08 23.73 14.08L23.73 14.08L23.73 14.08Q22.74 14.08 21.61 14.18L21.61 14.18L21.61 14.18Q20.47 14.29 20.31 14.29L20.31 14.29L20.31 14.29Q20.14 14.29 20.05 14.19L20.05 14.19L20.05 14.19Q19.95 14.10 19.95 13.98L19.95 13.98L19.95 13.98Q19.95 13.85 20.24 13.06L20.24 13.06L20.24 13.06Q20.54 12.27 20.89 11.36L20.89 11.36L20.89 11.36Q21.24 10.45 21.53 9.37L21.53 9.37L21.53 9.37Q21.82 8.28 21.82 7.58L21.82 7.58L21.81 7.32L21.81 7.32Q21.81 6.98 22.48 6.98ZM34.15 14.28L34.15 14.28L34.15 14.28Q33.97 14.29 33.64 14.29L33.64 14.29L33.64 14.29Q32.07 14.29 30.68 13.99L30.68 13.99L30.68 13.99Q29.29 13.70 29.03 13.31L29.03 13.31L29.03 13.31Q28.95 13.19 28.95 13.00L28.95 13.00L28.95 13.00Q28.95 12.82 29.39 12.41L29.39 12.41L29.39 12.41Q29.83 12.00 29.99 12.00L29.99 12.00L29.99 12.00Q30.15 12.00 30.33 12.12L30.33 12.12L30.33 12.12Q30.50 12.24 30.71 12.41L30.71 12.41L30.71 12.41Q30.93 12.58 31.19 12.76L31.19 12.76L31.19 12.76Q31.81 13.17 32.68 13.17L32.68 13.17L32.68 13.17Q33.03 13.17 33.25 12.99L33.25 12.99L33.25 12.99Q33.46 12.81 33.46 12.54L33.46 12.54L33.46 12.54Q33.46 12.27 33.28 12.07L33.28 12.07L33.28 12.07Q33.10 11.87 32.81 11.73L32.81 11.73L32.81 11.73Q32.52 11.58 32.17 11.43L32.17 11.43L32.17 11.43Q31.82 11.29 31.47 11.11L31.47 11.11L31.47 11.11Q31.12 10.94 30.82 10.73L30.82 10.73L30.82 10.73Q30.17 10.27 30.17 9.59L30.17 9.59L30.17 9.59Q30.17 8.91 30.59 8.42L30.59 8.42L30.59 8.42Q31.00 7.92 31.63 7.62L31.63 7.62L31.63 7.62Q32.26 7.31 33.05 7.11L33.05 7.11L33.05 7.11Q34.45 6.76 35.69 6.76L35.69 6.76L35.69 6.76Q36.93 6.76 38.00 6.89L38.00 6.89L38.00 6.89Q39.07 7.01 39.47 7.26L39.47 7.26L39.47 7.26Q39.58 7.32 39.58 7.58L39.58 7.58L39.58 7.58Q39.58 7.85 39.40 8.34L39.40 8.34L39.40 8.34Q39.21 8.83 38.93 9.24L38.93 9.24L38.93 9.24Q38.64 9.65 38.42 9.65L38.42 9.65L38.42 9.65Q38.33 9.65 38.27 9.58L38.27 9.58L38.27 9.58Q37.62 8.80 37.01 8.38L37.01 8.38L37.01 8.38Q36.39 7.96 35.68 7.96L35.68 7.96L35.68 7.96Q35.13 7.96 34.89 8.18L34.89 8.18L34.89 8.18Q34.66 8.40 34.66 8.64L34.66 8.64L34.66 8.64Q34.66 8.88 34.92 9.10L34.92 9.10L34.92 9.10Q35.18 9.32 35.58 9.50L35.58 9.50L35.58 9.50Q35.97 9.67 36.43 9.91L36.43 9.91L36.43 9.91Q36.89 10.14 37.29 10.39L37.29 10.39L37.29 10.39Q37.68 10.63 37.94 11.00L37.94 11.00L37.94 11.00Q38.21 11.36 38.21 11.92L38.21 11.92L38.21 11.92Q38.21 12.47 37.80 13.00L37.80 13.00L37.80 13.00Q39.50 12.65 40.46 12.15L40.46 12.15L40.46 12.15Q40.62 12.07 40.74 12.07L40.74 12.07L40.74 12.07Q41.00 12.07 41.00 12.33L41.00 12.33L41.00 12.33Q41.00 12.54 40.73 12.73L40.73 12.73L40.73 12.73Q40.46 12.91 39.85 13.16L39.85 13.16L39.85 13.16Q39.23 13.42 38.38 13.68L38.38 13.68L38.38 13.68Q36.41 14.28 34.15 14.28ZM46.46 7.05L46.46 7.05L48.26 6.82L48.26 6.82Q48.77 6.82 48.77 7.22L48.77 7.22L48.77 7.22Q48.77 7.62 48.29 7.71L48.29 7.71L48.29 7.71Q47.81 7.81 46.13 7.98L46.13 7.98L46.13 7.98Q45.90 8.59 45.43 9.67L45.43 9.67L45.43 9.67Q44.48 11.88 44.48 12.33L44.48 12.33L44.48 12.33Q44.48 12.81 45.08 12.81L45.08 12.81L45.08 12.81Q47.02 12.81 48.57 12.16L48.57 12.16L48.57 12.16Q48.79 12.07 48.92 12.07L48.92 12.07L48.92 12.07Q49.18 12.07 49.18 12.29L49.18 12.29L49.18 12.29Q49.18 12.52 48.85 12.74L48.85 12.74L48.85 12.74Q47.84 13.40 45.82 13.84L45.82 13.84L45.82 13.84Q43.80 14.29 42.09 14.29L42.09 14.29L42.09 14.29Q41.12 14.29 40.61 13.98L40.61 13.98L40.61 13.98Q40.09 13.68 40.09 13.15L40.09 13.15L40.09 13.15Q40.09 12.61 40.80 11.13L40.80 11.13L40.80 11.13Q41.60 9.47 41.95 8.22L41.95 8.22L41.95 8.22Q41.53 8.24 41.36 8.24L41.36 8.24L41.36 8.24Q40.96 8.24 40.96 7.92L40.96 7.92L40.96 7.92Q40.96 7.68 41.09 7.59L41.09 7.59L41.09 7.59Q41.22 7.51 41.36 7.48L41.36 7.48L41.36 7.48Q41.50 7.44 41.60 7.43L41.60 7.43L41.60 7.43Q41.70 7.42 41.88 7.41L41.88 7.41L41.88 7.41Q42.05 7.40 42.14 7.39L42.14 7.39L42.14 7.39Q42.23 6.87 42.23 6.41L42.23 6.41L42.22 6.15L42.22 6.15Q42.22 5.84 43.00 5.74L43.00 5.74L43.00 5.74Q43.26 5.70 44.63 5.39L44.63 5.39L44.63 5.39Q46.01 5.09 46.31 5.09L46.31 5.09L46.31 5.09Q46.81 5.09 46.81 5.43L46.81 5.43L46.81 5.43Q46.81 6.02 46.46 7.05ZM53.52 13.38L53.52 13.38L53.53 13.64L53.53 13.64Q53.53 13.85 53.32 13.97L53.32 13.97L53.32 13.97Q53.12 14.10 52.88 14.10L52.88 14.10L52.88 14.10Q52.08 14.10 51.31 14.15L51.31 14.15L51.31 14.15Q50.54 14.21 50.20 14.21L50.20 14.21L50.20 14.21Q49.86 14.21 49.72 14.19L49.72 14.19L49.72 14.19Q49.58 14.18 49.42 14.12L49.42 14.12L49.42 14.12Q49.10 14.01 49.10 13.61L49.10 13.61L49.10 13.61Q49.10 13.21 49.16 13.00L49.16 13.00L49.16 13.00Q49.79 10.73 50.90 8.39L50.90 8.39L50.90 8.39Q51.93 6.24 51.93 5.89L51.93 5.89L51.93 5.89Q51.93 5.71 51.76 5.60L51.76 5.60L51.76 5.60Q51.60 5.50 51.38 5.50L51.38 5.50L51.38 5.50Q51.17 5.50 50.61 5.68L50.61 5.68L50.61 5.68Q50.05 5.87 49.84 5.87L49.84 5.87L49.84 5.87Q49.64 5.87 49.53 5.75L49.53 5.75L49.53 5.75Q49.42 5.64 49.42 5.50L49.42 5.50L49.42 5.50Q49.42 5.23 49.82 4.96L49.82 4.96L49.82 4.96Q51.24 4.01 52.55 3.43L52.55 3.43L52.55 3.43Q53.86 2.85 54.81 2.85L54.81 2.85L54.81 2.85Q56.21 2.85 56.21 4.11L56.21 4.11L56.21 4.11Q56.21 4.72 56.02 5.40L56.02 5.40L56.02 5.40Q55.84 6.08 55.30 7.36L55.30 7.36L55.30 7.36Q54.35 9.65 53.58 12.89L53.58 12.89L53.58 12.89Q53.52 13.15 53.52 13.38ZM62.19 5.07L62.19 5.07L62.19 5.07Q62.62 5.07 62.62 5.34L62.62 5.34L62.62 5.34Q62.62 5.52 62.23 5.97L62.23 5.97L62.23 5.97Q61.45 6.89 61.02 8.37L61.02 8.37L61.02 8.37Q60.59 9.85 60.59 11.39L60.59 11.39L60.59 11.39Q60.59 13.36 61.63 13.36L61.63 13.36L61.63 13.36Q62.36 13.36 63.03 12.35L63.03 12.35L63.03 12.35Q63.70 11.33 64.10 9.65L64.10 9.65L64.10 9.65Q64.51 7.97 64.51 6.13L64.51 6.13L64.51 6.13Q64.51 5.15 64.04 4.65L64.04 4.65L64.04 4.65Q63.57 4.14 62.92 4.14L62.92 4.14L62.92 4.14Q62.56 4.14 61.89 4.30L61.89 4.30L61.89 4.30Q61.22 4.46 61.14 4.46L61.14 4.46L61.14 4.46Q60.83 4.46 60.83 4.18L60.83 4.18L60.83 4.18Q60.83 4.00 61.10 3.77L61.10 3.77L61.10 3.77Q61.37 3.54 61.81 3.34L61.81 3.34L61.81 3.34Q62.87 2.84 64.08 2.84L64.08 2.84L64.08 2.84Q65.28 2.84 66.06 3.17L66.06 3.17L66.06 3.17Q66.84 3.51 67.33 4.10L67.33 4.10L67.33 4.10Q68.35 5.31 68.35 7.16L68.35 7.16L68.35 7.16Q68.35 8.44 68.00 9.59L68.00 9.59L68.00 9.59Q67.65 10.73 67.03 11.60L67.03 11.60L67.03 11.60Q66.40 12.46 65.58 13.10L65.58 13.10L65.58 13.10Q63.91 14.38 61.79 14.38L61.79 14.38L61.79 14.38Q59.62 14.38 58.45 13.25L58.45 13.25L58.45 13.25Q57.32 12.15 57.32 10.32L57.32 10.32L57.32 10.32Q57.32 9.13 57.70 8.13L57.70 8.13L57.70 8.13Q58.07 7.14 58.72 6.47L58.72 6.47L58.72 6.47Q59.38 5.80 60.27 5.43L60.27 5.43L60.27 5.43Q61.16 5.07 62.19 5.07ZM75.02 5.07L75.02 5.07L75.02 5.07Q75.45 5.07 75.45 5.34L75.45 5.34L75.45 5.34Q75.45 5.52 75.06 5.97L75.06 5.97L75.06 5.97Q74.28 6.89 73.85 8.37L73.85 8.37L73.85 8.37Q73.42 9.85 73.42 11.39L73.42 11.39L73.42 11.39Q73.42 13.36 74.46 13.36L74.46 13.36L74.46 13.36Q75.19 13.36 75.86 12.35L75.86 12.35L75.86 12.35Q76.53 11.33 76.94 9.65L76.94 9.65L76.94 9.65Q77.34 7.97 77.34 6.13L77.34 6.13L77.34 6.13Q77.34 5.15 76.87 4.65L76.87 4.65L76.87 4.65Q76.41 4.14 75.75 4.14L75.75 4.14L75.75 4.14Q75.39 4.14 74.72 4.30L74.72 4.30L74.72 4.30Q74.05 4.46 73.97 4.46L73.97 4.46L73.97 4.46Q73.66 4.46 73.66 4.18L73.66 4.18L73.66 4.18Q73.66 4.00 73.93 3.77L73.93 3.77L73.93 3.77Q74.20 3.54 74.64 3.34L74.64 3.34L74.64 3.34Q75.70 2.84 76.91 2.84L76.91 2.84L76.91 2.84Q78.11 2.84 78.89 3.17L78.89 3.17L78.89 3.17Q79.67 3.51 80.17 4.10L80.17 4.10L80.17 4.10Q81.18 5.31 81.18 7.16L81.18 7.16L81.18 7.16Q81.18 8.44 80.83 9.59L80.83 9.59L80.83 9.59Q80.48 10.73 79.86 11.60L79.86 11.60L79.86 11.60Q79.24 12.46 78.42 13.10L78.42 13.10L78.42 13.10Q76.74 14.38 74.62 14.38L74.62 14.38L74.62 14.38Q72.45 14.38 71.29 13.25L71.29 13.25L71.29 13.25Q70.15 12.15 70.15 10.32L70.15 10.32L70.15 10.32Q70.15 9.13 70.53 8.13L70.53 8.13L70.53 8.13Q70.90 7.14 71.56 6.47L71.56 6.47L71.56 6.47Q72.21 5.80 73.10 5.43L73.10 5.43L73.10 5.43Q73.99 5.07 75.02 5.07Z"></path></g> <!----></svg>