<svg data-v-5f19e91b="" xmlns="http://www.w3.org/2000/svg" width="241.40381520965093" height="60" viewBox="0 0 241.40381520965093 60"><!----> <!----> <!----> <g data-v-5f19e91b="" id="9f0e4d7c-c422-ebab-2448-ec7edb484927" fill="black" transform="matrix(5.1993067762857725,0,0,5.1993067762857725,1.4038100244640361,-14.766032514840006)"><path d="M10.04 8.25L10.04 8.25L10.04 8.25Q11.02 8.25 11.02 8.70L11.02 8.70L11.02 8.70Q11.02 8.99 10.69 9.74L10.69 9.74L10.69 9.74Q10.36 10.49 10.14 10.81L10.14 10.81L10.14 10.81Q9.93 11.13 9.71 11.13L9.71 11.13L9.71 11.13Q9.50 11.13 9.21 10.95L9.21 10.95L9.21 10.95Q8.91 10.78 8.61 10.57L8.61 10.57L8.61 10.57Q8.31 10.36 7.83 10.17L7.83 10.17L7.83 10.17Q7.36 9.98 6.90 9.95L6.90 9.95L6.90 9.95Q6.22 12.40 6.14 12.66L6.14 12.66L6.14 12.66Q6.06 12.92 5.91 13.19L5.91 13.19L5.91 13.19Q5.75 13.45 5.53 13.62L5.53 13.62L5.53 13.62Q5.31 13.79 5.08 13.90L5.08 13.90L5.08 13.90Q4.85 14.01 4.53 14.07L4.53 14.07L4.53 14.07Q2.97 14.31 1.52 13.95L1.52 13.95L1.52 13.95Q0.70 13.75 0.22 13.46L0.22 13.46L0.22 13.46Q-0.27 13.17-0.27 12.90L-0.27 12.90L-0.27 12.90Q-0.25 12.74-0.12 12.65L-0.12 12.65L-0.12 12.65Q0.01 12.56 0.18 12.56L0.18 12.56L0.18 12.56Q0.81 12.56 1.10 12.36L1.10 12.36L1.10 12.36Q1.40 12.15 1.67 11.61L1.67 11.61L1.67 11.61Q1.93 11.07 2.17 10.40L2.17 10.40L2.17 10.40Q2.41 9.73 2.60 9.17L2.60 9.17L2.60 9.17Q2.80 8.61 3.06 8.03L3.06 8.03L3.06 8.03Q3.63 6.77 4.51 6.35L4.51 6.35L4.51 6.35Q5.39 5.93 7.18 5.93L7.18 5.93L7.18 5.93Q8.25 5.93 8.25 6.28L8.25 6.28L8.25 6.28Q8.25 6.42 8.12 6.67L8.12 6.67L8.12 6.67Q7.61 7.64 7.18 9.03L7.18 9.03L7.18 9.03Q7.76 8.72 8.53 8.49L8.53 8.49L8.53 8.49Q9.31 8.25 10.04 8.25ZM12.12 6.83L12.12 6.83L12.12 6.83Q11.13 5.96 9.70 5.42L9.70 5.42L9.70 5.42Q8.28 4.89 6.83 4.89L6.83 4.89L6.83 4.89Q5.96 4.89 4.74 5.12L4.74 5.12L4.74 5.12Q3.51 5.35 2.93 5.61L2.93 5.61L2.93 5.61Q2.34 5.87 2.15 5.87L2.15 5.87L2.15 5.87Q1.93 5.87 1.93 5.66L1.93 5.66L1.93 5.66Q1.93 5.44 2.30 5.13L2.30 5.13L2.30 5.13Q2.68 4.83 3.40 4.50L3.40 4.50L3.40 4.50Q4.12 4.17 5.03 3.88L5.03 3.88L5.03 3.88Q7.11 3.24 9.58 3.24L9.58 3.24L9.58 3.24Q11.20 3.24 12.28 3.38L12.28 3.38L12.28 3.38Q14.30 3.62 14.30 4.14L14.30 4.14L14.30 4.14Q14.28 4.42 14.03 5.07L14.03 5.07L14.03 5.07Q13.77 5.72 13.43 6.31L13.43 6.31L13.43 6.31Q13.08 6.90 12.85 6.97L12.85 6.97L12.85 6.97Q12.71 7.01 12.53 7.01L12.53 7.01L12.53 7.01Q12.35 7.01 12.12 6.83ZM18.50 13.38L18.50 13.38L18.50 13.64L18.50 13.64Q18.50 13.85 18.30 13.97L18.30 13.97L18.30 13.97Q18.10 14.10 17.86 14.10L17.86 14.10L17.86 14.10Q17.06 14.10 16.29 14.15L16.29 14.15L16.29 14.15Q15.52 14.21 15.18 14.21L15.18 14.21L15.18 14.21Q14.84 14.21 14.70 14.19L14.70 14.19L14.70 14.19Q14.56 14.18 14.40 14.12L14.40 14.12L14.40 14.12Q14.08 14.01 14.08 13.61L14.08 13.61L14.08 13.61Q14.08 13.21 14.14 13.00L14.14 13.00L14.14 13.00Q14.77 10.73 15.88 8.39L15.88 8.39L15.88 8.39Q16.91 6.24 16.91 5.89L16.91 5.89L16.91 5.89Q16.91 5.71 16.74 5.60L16.74 5.60L16.74 5.60Q16.58 5.50 16.36 5.50L16.36 5.50L16.36 5.50Q16.15 5.50 15.59 5.68L15.59 5.68L15.59 5.68Q15.03 5.87 14.82 5.87L14.82 5.87L14.82 5.87Q14.62 5.87 14.51 5.75L14.51 5.75L14.51 5.75Q14.40 5.64 14.40 5.50L14.40 5.50L14.40 5.50Q14.40 5.23 14.80 4.96L14.80 4.96L14.80 4.96Q16.21 4.01 17.53 3.43L17.53 3.43L17.53 3.43Q18.84 2.85 19.79 2.85L19.79 2.85L19.79 2.85Q21.19 2.85 21.19 4.11L21.19 4.11L21.19 4.11Q21.19 4.72 21.00 5.40L21.00 5.40L21.00 5.40Q20.82 6.08 20.28 7.36L20.28 7.36L20.28 7.36Q19.33 9.65 18.56 12.89L18.56 12.89L18.56 12.89Q18.50 13.15 18.50 13.38ZM27.17 5.07L27.17 5.07L27.17 5.07Q27.60 5.07 27.60 5.34L27.60 5.34L27.60 5.34Q27.60 5.52 27.21 5.97L27.21 5.97L27.21 5.97Q26.43 6.89 26.00 8.37L26.00 8.37L26.00 8.37Q25.57 9.85 25.57 11.39L25.57 11.39L25.57 11.39Q25.57 13.36 26.61 13.36L26.61 13.36L26.61 13.36Q27.34 13.36 28.01 12.35L28.01 12.35L28.01 12.35Q28.68 11.33 29.08 9.65L29.08 9.65L29.08 9.65Q29.49 7.97 29.49 6.13L29.49 6.13L29.49 6.13Q29.49 5.15 29.02 4.65L29.02 4.65L29.02 4.65Q28.55 4.14 27.90 4.14L27.90 4.14L27.90 4.14Q27.54 4.14 26.87 4.30L26.87 4.30L26.87 4.30Q26.20 4.46 26.12 4.46L26.12 4.46L26.12 4.46Q25.81 4.46 25.81 4.18L25.81 4.18L25.81 4.18Q25.81 4.00 26.08 3.77L26.08 3.77L26.08 3.77Q26.35 3.54 26.79 3.34L26.79 3.34L26.79 3.34Q27.85 2.84 29.06 2.84L29.06 2.84L29.06 2.84Q30.26 2.84 31.04 3.17L31.04 3.17L31.04 3.17Q31.82 3.51 32.31 4.10L32.31 4.10L32.31 4.10Q33.33 5.31 33.33 7.16L33.33 7.16L33.33 7.16Q33.33 8.44 32.98 9.59L32.98 9.59L32.98 9.59Q32.63 10.73 32.01 11.60L32.01 11.60L32.01 11.60Q31.38 12.46 30.56 13.10L30.56 13.10L30.56 13.10Q28.89 14.38 26.77 14.38L26.77 14.38L26.77 14.38Q24.60 14.38 23.43 13.25L23.43 13.25L23.43 13.25Q22.30 12.15 22.30 10.32L22.30 10.32L22.30 10.32Q22.30 9.13 22.67 8.13L22.67 8.13L22.67 8.13Q23.05 7.14 23.70 6.47L23.70 6.47L23.70 6.47Q24.36 5.80 25.25 5.43L25.25 5.43L25.25 5.43Q26.14 5.07 27.17 5.07ZM40.00 5.07L40.00 5.07L40.00 5.07Q40.43 5.07 40.43 5.34L40.43 5.34L40.43 5.34Q40.43 5.52 40.04 5.97L40.04 5.97L40.04 5.97Q39.26 6.89 38.83 8.37L38.83 8.37L38.83 8.37Q38.40 9.85 38.40 11.39L38.40 11.39L38.40 11.39Q38.40 13.36 39.44 13.36L39.44 13.36L39.44 13.36Q40.17 13.36 40.84 12.35L40.84 12.35L40.84 12.35Q41.51 11.33 41.91 9.65L41.91 9.65L41.91 9.65Q42.32 7.97 42.32 6.13L42.32 6.13L42.32 6.13Q42.32 5.15 41.85 4.65L41.85 4.65L41.85 4.65Q41.38 4.14 40.73 4.14L40.73 4.14L40.73 4.14Q40.37 4.14 39.70 4.30L39.70 4.30L39.70 4.30Q39.03 4.46 38.95 4.46L38.95 4.46L38.95 4.46Q38.64 4.46 38.64 4.18L38.64 4.18L38.64 4.18Q38.64 4.00 38.91 3.77L38.91 3.77L38.91 3.77Q39.18 3.54 39.62 3.34L39.62 3.34L39.62 3.34Q40.68 2.84 41.89 2.84L41.89 2.84L41.89 2.84Q43.09 2.84 43.87 3.17L43.87 3.17L43.87 3.17Q44.65 3.51 45.14 4.10L45.14 4.10L45.14 4.10Q46.16 5.31 46.16 7.16L46.16 7.16L46.16 7.16Q46.16 8.44 45.81 9.59L45.81 9.59L45.81 9.59Q45.46 10.73 44.84 11.60L44.84 11.60L44.84 11.60Q44.21 12.46 43.39 13.10L43.39 13.10L43.39 13.10Q41.72 14.38 39.60 14.38L39.60 14.38L39.60 14.38Q37.43 14.38 36.26 13.25L36.26 13.25L36.26 13.25Q35.13 12.15 35.13 10.32L35.13 10.32L35.13 10.32Q35.13 9.13 35.51 8.13L35.51 8.13L35.51 8.13Q35.88 7.14 36.53 6.47L36.53 6.47L36.53 6.47Q37.19 5.80 38.08 5.43L38.08 5.43L38.08 5.43Q38.97 5.07 40.00 5.07Z"></path></g> <!----></svg>